<svg xmlns="http://www.w3.org/2000/svg" xmlns:xlink="http://www.w3.org/1999/xlink" width="500" zoomAndPan="magnify" viewBox="0 0 375 374.999991" height="500" preserveAspectRatio="xMidYMid meet" version="1.0">
  <defs>
    <clipPath id="a49f0b12b2">
      <path d="M 110.507812 110.507812 L 264.257812 110.507812 L 264.257812 264.257812 L 110.507812 264.257812 Z M 110.507812 110.507812 " clip-rule="nonzero"/>
    </clipPath>
    <clipPath id="a29e180fd0">
      <path d="M 187.496094 110.507812 C 144.976562 110.507812 110.507812 144.976562 110.507812 187.496094 C 110.507812 230.015625 144.976562 264.480469 187.496094 264.480469 C 230.015625 264.480469 264.480469 230.015625 264.480469 187.496094 C 264.480469 144.976562 230.015625 110.507812 187.496094 110.507812 Z M 187.496094 110.507812 " clip-rule="nonzero"/>
    </clipPath>
    <clipPath id="5616910579">
      <path d="M 150 143 L 203 143 L 203 210 L 150 210 Z M 150 143 " clip-rule="nonzero"/>
    </clipPath>
    <clipPath id="62abd17c2b">
      <path d="M 120.589844 158.820312 L 234.539062 132.273438 L 254.105469 216.273438 L 140.15625 242.820312 Z M 120.589844 158.820312 " clip-rule="nonzero"/>
    </clipPath>
    <clipPath id="3f9bdda825">
      <path d="M 120.589844 158.820312 L 234.539062 132.273438 L 254.105469 216.273438 L 140.15625 242.820312 Z M 120.589844 158.820312 " clip-rule="nonzero"/>
    </clipPath>
    <clipPath id="a2426013a8">
      <path d="M 142 167 L 162 167 L 162 206 L 142 206 Z M 142 167 " clip-rule="nonzero"/>
    </clipPath>
    <clipPath id="bb668d2449">
      <path d="M 120.589844 158.820312 L 234.539062 132.273438 L 254.105469 216.273438 L 140.15625 242.820312 Z M 120.589844 158.820312 " clip-rule="nonzero"/>
    </clipPath>
    <clipPath id="7b89d6333b">
      <path d="M 120.589844 158.820312 L 234.539062 132.273438 L 254.105469 216.273438 L 140.15625 242.820312 Z M 120.589844 158.820312 " clip-rule="nonzero"/>
    </clipPath>
    <clipPath id="1e7a479a8c">
      <path d="M 141 201 L 170 201 L 170 238 L 141 238 Z M 141 201 " clip-rule="nonzero"/>
    </clipPath>
    <clipPath id="376025cda1">
      <path d="M 120.589844 158.820312 L 234.539062 132.273438 L 254.105469 216.273438 L 140.15625 242.820312 Z M 120.589844 158.820312 " clip-rule="nonzero"/>
    </clipPath>
    <clipPath id="3d2c1d54dd">
      <path d="M 120.589844 158.820312 L 234.539062 132.273438 L 254.105469 216.273438 L 140.15625 242.820312 Z M 120.589844 158.820312 " clip-rule="nonzero"/>
    </clipPath>
    <clipPath id="de098cb8ad">
      <path d="M 184 141 L 211 141 L 211 210 L 184 210 Z M 184 141 " clip-rule="nonzero"/>
    </clipPath>
    <clipPath id="365a1001d9">
      <path d="M 120.589844 158.820312 L 234.539062 132.273438 L 254.105469 216.273438 L 140.15625 242.820312 Z M 120.589844 158.820312 " clip-rule="nonzero"/>
    </clipPath>
    <clipPath id="60bf87596e">
      <path d="M 120.589844 158.820312 L 234.539062 132.273438 L 254.105469 216.273438 L 140.15625 242.820312 Z M 120.589844 158.820312 " clip-rule="nonzero"/>
    </clipPath>
    <clipPath id="175ee3651e">
      <path d="M 127 168 L 155 168 L 155 209 L 127 209 Z M 127 168 " clip-rule="nonzero"/>
    </clipPath>
    <clipPath id="be2e6b2380">
      <path d="M 120.589844 158.820312 L 234.539062 132.273438 L 254.105469 216.273438 L 140.15625 242.820312 Z M 120.589844 158.820312 " clip-rule="nonzero"/>
    </clipPath>
    <clipPath id="32ca4f74eb">
      <path d="M 120.589844 158.820312 L 234.539062 132.273438 L 254.105469 216.273438 L 140.15625 242.820312 Z M 120.589844 158.820312 " clip-rule="nonzero"/>
    </clipPath>
    <clipPath id="ddacd37b28">
      <path d="M 195 157 L 216 157 L 216 193 L 195 193 Z M 195 157 " clip-rule="nonzero"/>
    </clipPath>
    <clipPath id="f6f2337537">
      <path d="M 120.589844 158.820312 L 234.539062 132.273438 L 254.105469 216.273438 L 140.15625 242.820312 Z M 120.589844 158.820312 " clip-rule="nonzero"/>
    </clipPath>
    <clipPath id="583678d246">
      <path d="M 120.589844 158.820312 L 234.539062 132.273438 L 254.105469 216.273438 L 140.15625 242.820312 Z M 120.589844 158.820312 " clip-rule="nonzero"/>
    </clipPath>
    <clipPath id="ec8cfb9ff5">
      <path d="M 223 163 L 243 163 L 243 172 L 223 172 Z M 223 163 " clip-rule="nonzero"/>
    </clipPath>
    <clipPath id="d2fe68264b">
      <path d="M 120.589844 158.820312 L 234.539062 132.273438 L 254.105469 216.273438 L 140.15625 242.820312 Z M 120.589844 158.820312 " clip-rule="nonzero"/>
    </clipPath>
    <clipPath id="bfacd101f1">
      <path d="M 120.589844 158.820312 L 234.539062 132.273438 L 254.105469 216.273438 L 140.15625 242.820312 Z M 120.589844 158.820312 " clip-rule="nonzero"/>
    </clipPath>
    <clipPath id="aafcead54e">
      <path d="M 213 138 L 226 138 L 226 156 L 213 156 Z M 213 138 " clip-rule="nonzero"/>
    </clipPath>
    <clipPath id="fa772d845e">
      <path d="M 120.589844 158.820312 L 234.539062 132.273438 L 254.105469 216.273438 L 140.15625 242.820312 Z M 120.589844 158.820312 " clip-rule="nonzero"/>
    </clipPath>
    <clipPath id="2d3e4f1723">
      <path d="M 120.589844 158.820312 L 234.539062 132.273438 L 254.105469 216.273438 L 140.15625 242.820312 Z M 120.589844 158.820312 " clip-rule="nonzero"/>
    </clipPath>
    <clipPath id="4a7d663a55">
      <path d="M 220 185 L 237 185 L 237 198 L 220 198 Z M 220 185 " clip-rule="nonzero"/>
    </clipPath>
    <clipPath id="ce1d442111">
      <path d="M 120.589844 158.820312 L 234.539062 132.273438 L 254.105469 216.273438 L 140.15625 242.820312 Z M 120.589844 158.820312 " clip-rule="nonzero"/>
    </clipPath>
    <clipPath id="fa909e9b44">
      <path d="M 120.589844 158.820312 L 234.539062 132.273438 L 254.105469 216.273438 L 140.15625 242.820312 Z M 120.589844 158.820312 " clip-rule="nonzero"/>
    </clipPath>
  </defs>
  <g clip-path="url(#a49f0b12b2)">
    <g clip-path="url(#a29e180fd0)">
      <path stroke-linecap="butt" transform="matrix(0.75, 0, 0, 0.75, 110.509699, 110.509694)" fill="#ffffff" stroke-linejoin="miter" d="M 102.648527 -0.00250912 C 45.955818 -0.00250912 -0.00251512 45.955824 -0.00251512 102.648533 C -0.00251512 159.341241 45.955818 205.294366 102.648527 205.294366 C 159.341235 205.294366 205.29436 159.341241 205.29436 102.648533 C 205.29436 45.955824 159.341235 -0.00250912 102.648527 -0.00250912 Z M 102.648527 -0.00250912 " stroke="#00afdd" stroke-width="12" stroke-opacity="1" stroke-miterlimit="4"/>
    </g>
  </g>
  <g clip-path="url(#5616910579)">
    <g clip-path="url(#62abd17c2b)">
      <g clip-path="url(#3f9bdda825)">
        <path fill="#00afdd" d="M 201.347656 209.84375 C 201.101562 209.902344 200.851562 209.914062 200.597656 209.875 L 159.558594 203.746094 C 159.160156 203.6875 158.808594 203.519531 158.511719 203.246094 C 158.214844 202.972656 158.023438 202.640625 157.929688 202.246094 L 150.332031 169.621094 C 150.238281 169.226562 150.265625 168.839844 150.410156 168.464844 C 150.554688 168.089844 150.796875 167.785156 151.128906 167.554688 L 185.246094 143.914062 C 185.378906 143.824219 185.519531 143.746094 185.667969 143.6875 C 185.820312 143.632812 185.976562 143.59375 186.136719 143.570312 C 186.296875 143.550781 186.457031 143.550781 186.617188 143.570312 C 186.777344 143.589844 186.929688 143.628906 187.082031 143.6875 C 187.234375 143.746094 187.375 143.820312 187.507812 143.914062 C 187.640625 144.003906 187.757812 144.113281 187.863281 144.234375 C 187.96875 144.355469 188.058594 144.488281 188.132812 144.632812 C 188.207031 144.777344 188.261719 144.925781 188.296875 145.085938 L 202.832031 207.476562 C 202.890625 207.730469 202.898438 207.988281 202.855469 208.246094 C 202.8125 208.503906 202.722656 208.742188 202.585938 208.964844 C 202.449219 209.183594 202.273438 209.371094 202.058594 209.523438 C 201.847656 209.675781 201.613281 209.78125 201.359375 209.839844 Z M 161.460938 200.050781 L 198.328125 205.554688 L 185.109375 148.800781 L 154.46875 170.03125 Z M 161.460938 200.050781 " fill-opacity="1" fill-rule="nonzero"/>
      </g>
    </g>
  </g>
  <g clip-path="url(#a2426013a8)">
    <g clip-path="url(#bb668d2449)">
      <g clip-path="url(#7b89d6333b)">
        <path fill="#00afdd" d="M 160.292969 203.714844 L 152.433594 205.546875 C 152.179688 205.605469 151.925781 205.613281 151.667969 205.570312 C 151.410156 205.527344 151.171875 205.4375 150.949219 205.300781 C 150.726562 205.164062 150.539062 204.988281 150.386719 204.777344 C 150.238281 204.5625 150.132812 204.332031 150.070312 204.078125 L 142.472656 171.449219 C 142.414062 171.195312 142.402344 170.941406 142.445312 170.683594 C 142.488281 170.425781 142.578125 170.1875 142.71875 169.964844 C 142.855469 169.742188 143.03125 169.554688 143.242188 169.402344 C 143.453125 169.253906 143.6875 169.148438 143.941406 169.085938 L 151.800781 167.257812 C 152.054688 167.199219 152.3125 167.1875 152.566406 167.230469 C 152.824219 167.273438 153.066406 167.363281 153.285156 167.503906 C 153.507812 167.640625 153.695312 167.816406 153.847656 168.027344 C 154 168.238281 154.105469 168.472656 154.164062 168.726562 L 161.765625 201.351562 C 161.824219 201.605469 161.832031 201.863281 161.789062 202.121094 C 161.746094 202.378906 161.65625 202.617188 161.519531 202.839844 C 161.378906 203.058594 161.207031 203.246094 160.992188 203.398438 C 160.78125 203.550781 160.546875 203.65625 160.292969 203.714844 Z M 153.457031 201.265625 L 157.484375 200.328125 L 150.777344 171.535156 L 146.75 172.472656 Z M 153.457031 201.265625 " fill-opacity="1" fill-rule="nonzero"/>
      </g>
    </g>
  </g>
  <g clip-path="url(#1e7a479a8c)">
    <g clip-path="url(#376025cda1)">
      <g clip-path="url(#3d2c1d54dd)">
        <path fill="#00afdd" d="M 163.714844 237.316406 C 162.945312 237.496094 162.164062 237.542969 161.375 237.464844 C 160.585938 237.386719 159.832031 237.183594 159.109375 236.855469 C 158.390625 236.527344 157.742188 236.089844 157.164062 235.546875 C 156.585938 235.003906 156.113281 234.382812 155.742188 233.679688 L 141.429688 206.605469 C 141.363281 206.472656 141.308594 206.332031 141.269531 206.1875 C 141.230469 206.042969 141.210938 205.894531 141.207031 205.742188 C 141.203125 205.59375 141.21875 205.445312 141.246094 205.296875 C 141.277344 205.152344 141.324219 205.007812 141.386719 204.871094 C 141.449219 204.738281 141.527344 204.609375 141.617188 204.488281 C 141.710938 204.371094 141.8125 204.265625 141.929688 204.167969 C 142.046875 204.074219 142.171875 203.992188 142.304688 203.925781 C 142.441406 203.859375 142.582031 203.8125 142.726562 203.777344 L 153.210938 201.335938 C 153.648438 201.234375 154.070312 201.277344 154.476562 201.460938 C 154.886719 201.648438 155.195312 201.941406 155.402344 202.339844 L 168.429688 226.972656 C 168.6875 227.457031 168.882812 227.964844 169.023438 228.496094 C 169.164062 229.027344 169.242188 229.566406 169.257812 230.117188 C 169.277344 230.664062 169.230469 231.207031 169.121094 231.746094 C 169.011719 232.285156 168.84375 232.804688 168.617188 233.304688 C 168.390625 233.800781 168.109375 234.269531 167.773438 234.703125 C 167.4375 235.140625 167.058594 235.53125 166.632812 235.878906 C 166.207031 236.226562 165.75 236.523438 165.257812 236.765625 C 164.765625 237.007812 164.25 237.191406 163.714844 237.316406 Z M 146.101562 207.023438 L 159.222656 231.839844 C 159.417969 232.226562 159.683594 232.5625 160.011719 232.84375 C 160.34375 233.125 160.714844 233.328125 161.128906 233.460938 C 161.542969 233.59375 161.96875 233.640625 162.398438 233.601562 C 162.832031 233.5625 163.242188 233.441406 163.625 233.238281 C 164.007812 233.035156 164.339844 232.765625 164.613281 232.429688 C 164.890625 232.09375 165.089844 231.71875 165.214844 231.304688 C 165.339844 230.886719 165.378906 230.464844 165.332031 230.03125 C 165.285156 229.597656 165.160156 229.195312 164.949219 228.8125 L 152.625 205.503906 Z M 146.101562 207.023438 " fill-opacity="1" fill-rule="nonzero"/>
      </g>
    </g>
  </g>
  <g clip-path="url(#de098cb8ad)">
    <g clip-path="url(#365a1001d9)">
      <g clip-path="url(#60bf87596e)">
        <path fill="#00afdd" d="M 209.203125 208.015625 L 201.34375 209.84375 C 201.089844 209.902344 200.832031 209.914062 200.578125 209.871094 C 200.320312 209.828125 200.078125 209.738281 199.859375 209.597656 C 199.636719 209.460938 199.449219 209.285156 199.296875 209.074219 C 199.144531 208.863281 199.039062 208.628906 198.980469 208.375 L 184.445312 145.980469 C 184.386719 145.726562 184.378906 145.472656 184.421875 145.214844 C 184.464844 144.957031 184.554688 144.71875 184.691406 144.496094 C 184.828125 144.273438 185.003906 144.085938 185.214844 143.933594 C 185.429688 143.78125 185.664062 143.675781 185.917969 143.617188 L 193.773438 141.789062 C 194.027344 141.726562 194.285156 141.71875 194.542969 141.761719 C 194.800781 141.804688 195.039062 141.894531 195.261719 142.03125 C 195.484375 142.171875 195.667969 142.347656 195.820312 142.558594 C 195.972656 142.769531 196.078125 143.003906 196.136719 143.257812 L 210.671875 205.652344 C 210.730469 205.90625 210.742188 206.160156 210.699219 206.417969 C 210.65625 206.675781 210.566406 206.914062 210.425781 207.136719 C 210.289062 207.359375 210.113281 207.546875 209.902344 207.695312 C 209.691406 207.847656 209.457031 207.953125 209.203125 208.015625 Z M 202.367188 205.566406 L 206.394531 204.625 L 192.75 146.066406 L 188.726562 147.003906 Z M 202.367188 205.566406 " fill-opacity="1" fill-rule="nonzero"/>
      </g>
    </g>
  </g>
  <g clip-path="url(#175ee3651e)">
    <g clip-path="url(#be2e6b2380)">
      <g clip-path="url(#32ca4f74eb)">
        <path fill="#00afdd" d="M 152.652344 205.496094 L 140.890625 208.234375 C 140.359375 208.359375 139.867188 208.277344 139.40625 207.992188 C 138.058594 207.160156 136.804688 206.203125 135.648438 205.121094 C 134.492188 204.039062 133.453125 202.855469 132.53125 201.570312 C 131.609375 200.28125 130.820312 198.917969 130.171875 197.472656 C 129.519531 196.03125 129.015625 194.535156 128.660156 192.992188 L 128.164062 190.855469 C 127.800781 189.3125 127.589844 187.75 127.539062 186.167969 C 127.484375 184.585938 127.585938 183.015625 127.84375 181.453125 C 128.101562 179.890625 128.511719 178.367188 129.074219 176.886719 C 129.632812 175.40625 130.332031 173.996094 131.171875 172.652344 C 131.460938 172.191406 131.867188 171.902344 132.394531 171.777344 L 144.15625 169.039062 C 144.410156 168.976562 144.667969 168.96875 144.925781 169.011719 C 145.183594 169.054688 145.421875 169.144531 145.644531 169.28125 C 145.867188 169.421875 146.050781 169.597656 146.203125 169.808594 C 146.355469 170.019531 146.460938 170.253906 146.519531 170.507812 L 154.121094 203.132812 C 154.179688 203.386719 154.1875 203.644531 154.144531 203.902344 C 154.101562 204.15625 154.011719 204.398438 153.875 204.621094 C 153.738281 204.839844 153.5625 205.027344 153.351562 205.179688 C 153.136719 205.332031 152.90625 205.4375 152.652344 205.496094 Z M 140.8125 204.210938 L 149.839844 202.109375 L 143.132812 173.316406 L 134.101562 175.421875 C 132.84375 177.625 132.03125 179.980469 131.667969 182.492188 C 131.304688 185 131.414062 187.492188 131.996094 189.960938 L 132.496094 192.101562 C 133.0625 194.574219 134.066406 196.855469 135.503906 198.949219 C 136.9375 201.039062 138.710938 202.792969 140.8125 204.210938 Z M 140.8125 204.210938 " fill-opacity="1" fill-rule="nonzero"/>
      </g>
    </g>
  </g>
  <g clip-path="url(#ddacd37b28)">
    <g clip-path="url(#f6f2337537)">
      <g clip-path="url(#583678d246)">
        <path fill="#00afdd" d="M 205.628906 192.664062 C 205.402344 192.71875 205.171875 192.730469 204.941406 192.703125 C 204.707031 192.675781 204.488281 192.609375 204.28125 192.503906 C 204.074219 192.398438 203.890625 192.261719 203.734375 192.089844 C 203.574219 191.917969 203.449219 191.726562 203.359375 191.511719 C 203.269531 191.296875 203.21875 191.070312 203.207031 190.839844 C 203.199219 190.605469 203.226562 190.378906 203.296875 190.15625 C 203.367188 189.933594 203.476562 189.730469 203.617188 189.546875 C 203.757812 189.363281 203.929688 189.207031 204.125 189.085938 C 204.789062 188.664062 205.417969 188.191406 206.007812 187.671875 C 206.601562 187.15625 207.148438 186.59375 207.652344 185.992188 C 208.15625 185.386719 208.613281 184.75 209.019531 184.074219 C 209.425781 183.402344 209.777344 182.699219 210.074219 181.972656 C 210.371094 181.242188 210.609375 180.496094 210.792969 179.730469 C 210.976562 178.964844 211.097656 178.191406 211.160156 177.40625 C 211.222656 176.625 211.222656 175.839844 211.164062 175.054688 C 211.105469 174.269531 210.988281 173.496094 210.808594 172.730469 C 210.632812 171.964844 210.394531 171.214844 210.101562 170.484375 C 209.808594 169.757812 209.460938 169.054688 209.054688 168.378906 C 208.652344 167.703125 208.203125 167.0625 207.699219 166.457031 C 207.199219 165.847656 206.652344 165.285156 206.066406 164.765625 C 205.476562 164.242188 204.851562 163.769531 204.1875 163.34375 C 203.527344 162.917969 202.835938 162.546875 202.117188 162.230469 C 201.398438 161.910156 200.660156 161.648438 199.898438 161.445312 C 199.140625 161.242188 198.367188 161.097656 197.585938 161.011719 C 197.332031 160.976562 197.089844 160.898438 196.867188 160.769531 C 196.644531 160.644531 196.453125 160.480469 196.292969 160.277344 C 196.132812 160.074219 196.019531 159.851562 195.945312 159.601562 C 195.875 159.355469 195.855469 159.105469 195.882812 158.847656 C 195.910156 158.59375 195.984375 158.351562 196.105469 158.125 C 196.230469 157.898438 196.390625 157.703125 196.589844 157.539062 C 196.785156 157.375 197.007812 157.257812 197.253906 157.179688 C 197.5 157.101562 197.753906 157.078125 198.007812 157.097656 C 198.992188 157.207031 199.960938 157.386719 200.917969 157.644531 C 201.875 157.898438 202.804688 158.230469 203.707031 158.628906 C 204.613281 159.03125 205.480469 159.496094 206.316406 160.03125 C 207.148438 160.566406 207.933594 161.160156 208.675781 161.816406 C 209.414062 162.472656 210.101562 163.183594 210.730469 163.945312 C 211.363281 164.707031 211.933594 165.511719 212.4375 166.363281 C 212.945312 167.214844 213.382812 168.097656 213.753906 169.015625 C 214.121094 169.933594 214.421875 170.875 214.644531 171.835938 C 214.871094 172.800781 215.019531 173.777344 215.09375 174.761719 C 215.164062 175.75 215.164062 176.734375 215.085938 177.722656 C 215.007812 178.707031 214.851562 179.683594 214.621094 180.644531 C 214.394531 181.609375 214.089844 182.546875 213.71875 183.464844 C 213.34375 184.378906 212.898438 185.261719 212.390625 186.109375 C 211.878906 186.957031 211.304688 187.757812 210.671875 188.519531 C 210.035156 189.277344 209.347656 189.984375 208.601562 190.636719 C 207.859375 191.289062 207.070312 191.878906 206.234375 192.410156 C 206.046875 192.53125 205.84375 192.613281 205.628906 192.664062 Z M 205.628906 192.664062 " fill-opacity="1" fill-rule="nonzero"/>
      </g>
    </g>
  </g>
  <g clip-path="url(#ec8cfb9ff5)">
    <g clip-path="url(#d2fe68264b)">
      <g clip-path="url(#bfacd101f1)">
        <path fill="#00afdd" d="M 240.992188 167.726562 L 226.210938 171.167969 C 225.957031 171.226562 225.703125 171.234375 225.445312 171.191406 C 225.1875 171.152344 224.949219 171.058594 224.726562 170.921875 C 224.503906 170.785156 224.316406 170.609375 224.164062 170.398438 C 224.015625 170.183594 223.910156 169.953125 223.847656 169.699219 C 223.789062 169.445312 223.78125 169.1875 223.824219 168.929688 C 223.867188 168.671875 223.957031 168.433594 224.09375 168.210938 C 224.234375 167.992188 224.40625 167.804688 224.621094 167.652344 C 224.832031 167.5 225.066406 167.394531 225.320312 167.335938 L 240.097656 163.890625 C 240.351562 163.832031 240.609375 163.824219 240.863281 163.867188 C 241.121094 163.910156 241.363281 164 241.582031 164.136719 C 241.804688 164.277344 241.992188 164.449219 242.144531 164.664062 C 242.296875 164.875 242.402344 165.109375 242.460938 165.363281 C 242.519531 165.617188 242.527344 165.871094 242.484375 166.128906 C 242.441406 166.386719 242.351562 166.628906 242.214844 166.847656 C 242.078125 167.070312 241.902344 167.257812 241.691406 167.410156 C 241.476562 167.5625 241.246094 167.667969 240.992188 167.726562 Z M 240.992188 167.726562 " fill-opacity="1" fill-rule="nonzero"/>
      </g>
    </g>
  </g>
  <g clip-path="url(#aafcead54e)">
    <g clip-path="url(#fa772d845e)">
      <g clip-path="url(#2d3e4f1723)">
        <path fill="#00afdd" d="M 215.613281 155.292969 C 215.226562 155.382812 214.84375 155.355469 214.472656 155.214844 C 214.101562 155.074219 213.796875 154.84375 213.566406 154.519531 C 213.335938 154.195312 213.214844 153.835938 213.199219 153.4375 C 213.1875 153.039062 213.285156 152.671875 213.496094 152.332031 L 221.519531 139.449219 C 221.664062 139.234375 221.839844 139.054688 222.050781 138.910156 C 222.261719 138.765625 222.492188 138.664062 222.742188 138.609375 C 222.992188 138.554688 223.246094 138.546875 223.5 138.589844 C 223.75 138.632812 223.988281 138.722656 224.203125 138.859375 C 224.421875 138.996094 224.605469 139.167969 224.757812 139.375 C 224.910156 139.582031 225.015625 139.8125 225.074219 140.058594 C 225.136719 140.308594 225.148438 140.5625 225.113281 140.816406 C 225.074219 141.070312 224.992188 141.304688 224.863281 141.527344 L 216.839844 154.40625 C 216.554688 154.871094 216.144531 155.167969 215.613281 155.292969 Z M 215.613281 155.292969 " fill-opacity="1" fill-rule="nonzero"/>
      </g>
    </g>
  </g>
  <g clip-path="url(#4a7d663a55)">
    <g clip-path="url(#ce1d442111)">
      <g clip-path="url(#fa909e9b44)">
        <path fill="#00afdd" d="M 235.363281 197.894531 C 234.835938 198.015625 234.339844 197.933594 233.878906 197.648438 L 220.996094 189.632812 C 220.773438 189.496094 220.585938 189.320312 220.4375 189.105469 C 220.285156 188.894531 220.179688 188.660156 220.121094 188.40625 C 220.0625 188.148438 220.054688 187.894531 220.097656 187.636719 C 220.140625 187.378906 220.230469 187.136719 220.371094 186.917969 C 220.507812 186.695312 220.683594 186.507812 220.898438 186.355469 C 221.109375 186.207031 221.34375 186.101562 221.601562 186.042969 C 221.855469 185.984375 222.109375 185.976562 222.367188 186.019531 C 222.625 186.0625 222.867188 186.15625 223.085938 186.292969 L 235.972656 194.3125 C 236.308594 194.523438 236.558594 194.808594 236.722656 195.171875 C 236.886719 195.53125 236.9375 195.910156 236.871094 196.304688 C 236.804688 196.695312 236.636719 197.035156 236.367188 197.328125 C 236.09375 197.617188 235.765625 197.808594 235.375 197.898438 Z M 235.363281 197.894531 " fill-opacity="1" fill-rule="nonzero"/>
      </g>
    </g>
  </g>
</svg>